<?xml version="1.0" encoding="UTF-8" standalone="no"?>
<!DOCTYPE svg PUBLIC "-//W3C//DTD SVG 1.1//EN"
 "http://www.w3.org/Graphics/SVG/1.1/DTD/svg11.dtd">
<!-- Generated by graphviz version 12.1.1 (20240910.0053)
 -->
<!-- Title: INFRA Pages: 1 -->
<svg width="990pt" height="296pt"
 viewBox="0.00 0.00 989.95 296.00" xmlns="http://www.w3.org/2000/svg" xmlns:xlink="http://www.w3.org/1999/xlink">
<g id="graph0" class="graph" transform="scale(1 1) rotate(0) translate(4 292)">
<title>INFRA</title>
<polygon fill="white" stroke="none" points="-4,4 -4,-292 985.95,-292 985.95,4 -4,4"/>
<!-- event&#45;bus&#45;depl -->
<g id="node1" class="node">
<title>event&#45;bus&#45;depl</title>
<path fill="#b7e0ff" stroke="black" stroke-width="2" d="M140.95,-180C140.95,-180 12,-180 12,-180 6,-180 0,-174 0,-168 0,-168 0,-120 0,-120 0,-114 6,-108 12,-108 12,-108 140.95,-108 140.95,-108 146.95,-108 152.95,-114 152.95,-120 152.95,-120 152.95,-168 152.95,-168 152.95,-174 146.95,-180 140.95,-180"/>
<text text-anchor="middle" x="76.48" y="-148.2" font-family="Arial" font-size="14.00">event&#45;bus&#45;depl</text>
<text text-anchor="middle" x="76.48" y="-131.4" font-family="Arial" font-size="14.00">(apps/v1/Deployment)</text>
</g>
<!-- event&#45;bus&#45;srv -->
<g id="node2" class="node">
<title>event&#45;bus&#45;srv</title>
<ellipse fill="#e6e6e6" stroke="black" stroke-width="2" cx="76.48" cy="-252" rx="61.75" ry="36"/>
<text text-anchor="middle" x="76.48" y="-256.2" font-family="Arial" font-size="14.00">event&#45;bus&#45;srv</text>
<text text-anchor="middle" x="76.48" y="-239.4" font-family="Arial" font-size="14.00">(v1/Service)</text>
</g>
<!-- event&#45;bus&#45;srv&#45;&gt;event&#45;bus&#45;depl -->
<g id="edge1" class="edge">
<title>event&#45;bus&#45;srv&#45;&gt;event&#45;bus&#45;depl</title>
<path fill="none" stroke="black" d="M76.48,-215.7C76.48,-207.93 76.48,-199.57 76.48,-191.43"/>
<polygon fill="black" stroke="black" points="79.98,-191.66 76.48,-181.66 72.98,-191.66 79.98,-191.66"/>
</g>
<!-- moderation&#45;depl -->
<g id="node3" class="node">
<title>moderation&#45;depl</title>
<path fill="#b7e0ff" stroke="black" stroke-width="2" d="M311.95,-180C311.95,-180 183,-180 183,-180 177,-180 171,-174 171,-168 171,-168 171,-120 171,-120 171,-114 177,-108 183,-108 183,-108 311.95,-108 311.95,-108 317.95,-108 323.95,-114 323.95,-120 323.95,-120 323.95,-168 323.95,-168 323.95,-174 317.95,-180 311.95,-180"/>
<text text-anchor="middle" x="247.48" y="-148.2" font-family="Arial" font-size="14.00">moderation&#45;depl</text>
<text text-anchor="middle" x="247.48" y="-131.4" font-family="Arial" font-size="14.00">(apps/v1/Deployment)</text>
</g>
<!-- moderation&#45;srv -->
<g id="node4" class="node">
<title>moderation&#45;srv</title>
<ellipse fill="#e6e6e6" stroke="black" stroke-width="2" cx="247.48" cy="-252" rx="67" ry="36"/>
<text text-anchor="middle" x="247.48" y="-256.2" font-family="Arial" font-size="14.00">moderation&#45;srv</text>
<text text-anchor="middle" x="247.48" y="-239.4" font-family="Arial" font-size="14.00">(v1/Service)</text>
</g>
<!-- moderation&#45;srv&#45;&gt;moderation&#45;depl -->
<g id="edge2" class="edge">
<title>moderation&#45;srv&#45;&gt;moderation&#45;depl</title>
<path fill="none" stroke="black" d="M247.48,-215.7C247.48,-207.93 247.48,-199.57 247.48,-191.43"/>
<polygon fill="black" stroke="black" points="250.98,-191.66 247.48,-181.66 243.98,-191.66 250.98,-191.66"/>
</g>
<!-- query&#45;depl -->
<g id="node5" class="node">
<title>query&#45;depl</title>
<path fill="#b7e0ff" stroke="black" stroke-width="2" d="M456.95,-72C456.95,-72 328,-72 328,-72 322,-72 316,-66 316,-60 316,-60 316,-12 316,-12 316,-6 322,0 328,0 328,0 456.95,0 456.95,0 462.95,0 468.95,-6 468.95,-12 468.95,-12 468.95,-60 468.95,-60 468.95,-66 462.95,-72 456.95,-72"/>
<text text-anchor="middle" x="392.48" y="-40.2" font-family="Arial" font-size="14.00">query&#45;depl</text>
<text text-anchor="middle" x="392.48" y="-23.4" font-family="Arial" font-size="14.00">(apps/v1/Deployment)</text>
</g>
<!-- query&#45;srv -->
<g id="node6" class="node">
<title>query&#45;srv</title>
<ellipse fill="#e6e6e6" stroke="black" stroke-width="2" cx="397.48" cy="-144" rx="55.55" ry="36"/>
<text text-anchor="middle" x="397.48" y="-148.2" font-family="Arial" font-size="14.00">query&#45;srv</text>
<text text-anchor="middle" x="397.48" y="-131.4" font-family="Arial" font-size="14.00">(v1/Service)</text>
</g>
<!-- query&#45;srv&#45;&gt;query&#45;depl -->
<g id="edge3" class="edge">
<title>query&#45;srv&#45;&gt;query&#45;depl</title>
<path fill="none" stroke="black" d="M395.81,-107.7C395.44,-99.93 395.05,-91.57 394.67,-83.43"/>
<polygon fill="black" stroke="black" points="398.17,-83.48 394.2,-73.65 391.18,-83.81 398.17,-83.48"/>
</g>
<!-- ingress&#45;srv -->
<g id="node7" class="node">
<title>ingress&#45;srv</title>
<path fill="#e78f81" stroke="black" stroke-width="2" d="M738.46,-288C738.46,-288 560.49,-288 560.49,-288 554.49,-288 548.49,-282 548.49,-276 548.49,-276 548.49,-228 548.49,-228 548.49,-222 554.49,-216 560.49,-216 560.49,-216 738.46,-216 738.46,-216 744.46,-216 750.46,-222 750.46,-228 750.46,-228 750.46,-276 750.46,-276 750.46,-282 744.46,-288 738.46,-288"/>
<text text-anchor="middle" x="649.48" y="-256.2" font-family="Arial" font-size="14.00">ingress&#45;srv</text>
<text text-anchor="middle" x="649.48" y="-239.4" font-family="Arial" font-size="14.00">(networking.k8s.io/v1/Ingress)</text>
</g>
<!-- ingress&#45;srv&#45;&gt;query&#45;srv -->
<g id="edge5" class="edge">
<title>ingress&#45;srv&#45;&gt;query&#45;srv</title>
<path fill="none" stroke="black" d="M565.22,-215.63C538.16,-204.26 508.05,-191.61 480.48,-180 471.97,-176.42 462.98,-172.63 454.17,-168.92"/>
<polygon fill="black" stroke="black" points="455.54,-165.7 444.96,-165.04 452.82,-172.15 455.54,-165.7"/>
</g>
<!-- posts&#45;clusterip&#45;srv -->
<g id="node10" class="node">
<title>posts&#45;clusterip&#45;srv</title>
<ellipse fill="#e6e6e6" stroke="black" stroke-width="2" cx="568.48" cy="-144" rx="79.38" ry="36"/>
<text text-anchor="middle" x="568.48" y="-148.2" font-family="Arial" font-size="14.00">posts&#45;clusterip&#45;srv</text>
<text text-anchor="middle" x="568.48" y="-131.4" font-family="Arial" font-size="14.00">(v1/Service)</text>
</g>
<!-- ingress&#45;srv&#45;&gt;posts&#45;clusterip&#45;srv -->
<g id="edge4" class="edge">
<title>ingress&#45;srv&#45;&gt;posts&#45;clusterip&#45;srv</title>
<path fill="none" stroke="black" d="M622.5,-215.7C615.53,-206.58 607.95,-196.66 600.73,-187.21"/>
<polygon fill="black" stroke="black" points="603.73,-185.37 594.88,-179.55 598.17,-189.62 603.73,-185.37"/>
</g>
<!-- client&#45;srv -->
<g id="node12" class="node">
<title>client&#45;srv</title>
<ellipse fill="#e6e6e6" stroke="black" stroke-width="2" cx="730.48" cy="-144" rx="55.55" ry="36"/>
<text text-anchor="middle" x="730.48" y="-148.2" font-family="Arial" font-size="14.00">client&#45;srv</text>
<text text-anchor="middle" x="730.48" y="-131.4" font-family="Arial" font-size="14.00">(v1/Service)</text>
</g>
<!-- ingress&#45;srv&#45;&gt;client&#45;srv -->
<g id="edge7" class="edge">
<title>ingress&#45;srv&#45;&gt;client&#45;srv</title>
<path fill="none" stroke="black" d="M676.45,-215.7C683.85,-206.02 691.93,-195.45 699.53,-185.5"/>
<polygon fill="black" stroke="black" points="702.14,-187.85 705.43,-177.78 696.57,-183.6 702.14,-187.85"/>
</g>
<!-- comments&#45;srv -->
<g id="node14" class="node">
<title>comments&#45;srv</title>
<ellipse fill="#e6e6e6" stroke="black" stroke-width="2" cx="888.48" cy="-144" rx="63.65" ry="36"/>
<text text-anchor="middle" x="888.48" y="-148.2" font-family="Arial" font-size="14.00">comments&#45;srv</text>
<text text-anchor="middle" x="888.48" y="-131.4" font-family="Arial" font-size="14.00">(v1/Service)</text>
</g>
<!-- ingress&#45;srv&#45;&gt;comments&#45;srv -->
<g id="edge6" class="edge">
<title>ingress&#45;srv&#45;&gt;comments&#45;srv</title>
<path fill="none" stroke="black" d="M729.39,-215.56C761.8,-201.18 798.59,-184.86 828.62,-171.55"/>
<polygon fill="black" stroke="black" points="829.84,-174.83 837.56,-167.58 827,-168.44 829.84,-174.83"/>
</g>
<!-- posts&#45;srv -->
<g id="node8" class="node">
<title>posts&#45;srv</title>
<ellipse fill="#e6e6e6" stroke="black" stroke-width="2" cx="824.48" cy="-252" rx="55.55" ry="36"/>
<text text-anchor="middle" x="824.48" y="-256.2" font-family="Arial" font-size="14.00">posts&#45;srv</text>
<text text-anchor="middle" x="824.48" y="-239.4" font-family="Arial" font-size="14.00">(v1/Service)</text>
</g>
<!-- posts&#45;depl -->
<g id="node9" class="node">
<title>posts&#45;depl</title>
<path fill="#b7e0ff" stroke="black" stroke-width="2" d="M627.95,-72C627.95,-72 499,-72 499,-72 493,-72 487,-66 487,-60 487,-60 487,-12 487,-12 487,-6 493,0 499,0 499,0 627.95,0 627.95,0 633.95,0 639.95,-6 639.95,-12 639.95,-12 639.95,-60 639.95,-60 639.95,-66 633.95,-72 627.95,-72"/>
<text text-anchor="middle" x="563.48" y="-40.2" font-family="Arial" font-size="14.00">posts&#45;depl</text>
<text text-anchor="middle" x="563.48" y="-23.4" font-family="Arial" font-size="14.00">(apps/v1/Deployment)</text>
</g>
<!-- posts&#45;clusterip&#45;srv&#45;&gt;posts&#45;depl -->
<g id="edge8" class="edge">
<title>posts&#45;clusterip&#45;srv&#45;&gt;posts&#45;depl</title>
<path fill="none" stroke="black" d="M566.81,-107.7C566.44,-99.93 566.05,-91.57 565.67,-83.43"/>
<polygon fill="black" stroke="black" points="569.17,-83.48 565.2,-73.65 562.18,-83.81 569.17,-83.48"/>
</g>
<!-- client&#45;depl -->
<g id="node11" class="node">
<title>client&#45;depl</title>
<path fill="#b7e0ff" stroke="black" stroke-width="2" d="M798.95,-72C798.95,-72 670,-72 670,-72 664,-72 658,-66 658,-60 658,-60 658,-12 658,-12 658,-6 664,0 670,0 670,0 798.95,0 798.95,0 804.95,0 810.95,-6 810.95,-12 810.95,-12 810.95,-60 810.95,-60 810.95,-66 804.95,-72 798.95,-72"/>
<text text-anchor="middle" x="734.48" y="-40.2" font-family="Arial" font-size="14.00">client&#45;depl</text>
<text text-anchor="middle" x="734.48" y="-23.4" font-family="Arial" font-size="14.00">(apps/v1/Deployment)</text>
</g>
<!-- client&#45;srv&#45;&gt;client&#45;depl -->
<g id="edge9" class="edge">
<title>client&#45;srv&#45;&gt;client&#45;depl</title>
<path fill="none" stroke="black" d="M731.81,-107.7C732.1,-99.93 732.42,-91.57 732.72,-83.43"/>
<polygon fill="black" stroke="black" points="736.21,-83.78 733.09,-73.65 729.22,-83.52 736.21,-83.78"/>
</g>
<!-- comments&#45;depl -->
<g id="node13" class="node">
<title>comments&#45;depl</title>
<path fill="#b7e0ff" stroke="black" stroke-width="2" d="M969.95,-72C969.95,-72 841,-72 841,-72 835,-72 829,-66 829,-60 829,-60 829,-12 829,-12 829,-6 835,0 841,0 841,0 969.95,0 969.95,0 975.95,0 981.95,-6 981.95,-12 981.95,-12 981.95,-60 981.95,-60 981.95,-66 975.95,-72 969.95,-72"/>
<text text-anchor="middle" x="905.48" y="-40.2" font-family="Arial" font-size="14.00">comments&#45;depl</text>
<text text-anchor="middle" x="905.48" y="-23.4" font-family="Arial" font-size="14.00">(apps/v1/Deployment)</text>
</g>
<!-- comments&#45;srv&#45;&gt;comments&#45;depl -->
<g id="edge10" class="edge">
<title>comments&#45;srv&#45;&gt;comments&#45;depl</title>
<path fill="none" stroke="black" d="M894.14,-107.7C895.38,-99.93 896.72,-91.57 898.03,-83.43"/>
<polygon fill="black" stroke="black" points="901.47,-84.06 899.6,-73.64 894.56,-82.96 901.47,-84.06"/>
</g>
</g>
</svg>
