<?xml version="1.0" encoding="UTF-8" standalone="no"?>
<!DOCTYPE svg PUBLIC "-//W3C//DTD SVG 1.1//EN"
 "http://www.w3.org/Graphics/SVG/1.1/DTD/svg11.dtd">
<!-- Generated by graphviz version 12.1.1 (20240910.0053)
 -->
<!-- Title: INFRA Pages: 1 -->
<svg width="921pt" height="296pt"
 viewBox="0.00 0.00 921.12 296.00" xmlns="http://www.w3.org/2000/svg" xmlns:xlink="http://www.w3.org/1999/xlink">
<g id="graph0" class="graph" transform="scale(1 1) rotate(0) translate(4 292)">
<title>INFRA</title>
<polygon fill="white" stroke="none" points="-4,4 -4,-292 917.12,-292 917.12,4 -4,4"/>
<!-- event&#45;bus&#45;depl -->
<g id="node1" class="node">
<title>event&#45;bus&#45;depl</title>
<path fill="#b7e0ff" stroke="black" stroke-width="2" d="M140.95,-180C140.95,-180 12,-180 12,-180 6,-180 0,-174 0,-168 0,-168 0,-120 0,-120 0,-114 6,-108 12,-108 12,-108 140.95,-108 140.95,-108 146.95,-108 152.95,-114 152.95,-120 152.95,-120 152.95,-168 152.95,-168 152.95,-174 146.95,-180 140.95,-180"/>
<text text-anchor="middle" x="76.48" y="-148.2" font-family="Arial" font-size="14.00">event&#45;bus&#45;depl</text>
<text text-anchor="middle" x="76.48" y="-131.4" font-family="Arial" font-size="14.00">(apps/v1/Deployment)</text>
</g>
<!-- event&#45;bus&#45;srv -->
<g id="node2" class="node">
<title>event&#45;bus&#45;srv</title>
<ellipse fill="#e6e6e6" stroke="black" stroke-width="2" cx="76.48" cy="-252" rx="61.75" ry="36"/>
<text text-anchor="middle" x="76.48" y="-256.2" font-family="Arial" font-size="14.00">event&#45;bus&#45;srv</text>
<text text-anchor="middle" x="76.48" y="-239.4" font-family="Arial" font-size="14.00">(v1/Service)</text>
</g>
<!-- event&#45;bus&#45;srv&#45;&gt;event&#45;bus&#45;depl -->
<g id="edge1" class="edge">
<title>event&#45;bus&#45;srv&#45;&gt;event&#45;bus&#45;depl</title>
<path fill="none" stroke="black" d="M76.48,-215.7C76.48,-207.93 76.48,-199.57 76.48,-191.43"/>
<polygon fill="black" stroke="black" points="79.98,-191.66 76.48,-181.66 72.98,-191.66 79.98,-191.66"/>
</g>
<!-- moderation&#45;depl -->
<g id="node3" class="node">
<title>moderation&#45;depl</title>
<path fill="#b7e0ff" stroke="black" stroke-width="2" d="M311.95,-180C311.95,-180 183,-180 183,-180 177,-180 171,-174 171,-168 171,-168 171,-120 171,-120 171,-114 177,-108 183,-108 183,-108 311.95,-108 311.95,-108 317.95,-108 323.95,-114 323.95,-120 323.95,-120 323.95,-168 323.95,-168 323.95,-174 317.95,-180 311.95,-180"/>
<text text-anchor="middle" x="247.48" y="-148.2" font-family="Arial" font-size="14.00">moderation&#45;depl</text>
<text text-anchor="middle" x="247.48" y="-131.4" font-family="Arial" font-size="14.00">(apps/v1/Deployment)</text>
</g>
<!-- moderation&#45;srv -->
<g id="node4" class="node">
<title>moderation&#45;srv</title>
<ellipse fill="#e6e6e6" stroke="black" stroke-width="2" cx="247.48" cy="-252" rx="67" ry="36"/>
<text text-anchor="middle" x="247.48" y="-256.2" font-family="Arial" font-size="14.00">moderation&#45;srv</text>
<text text-anchor="middle" x="247.48" y="-239.4" font-family="Arial" font-size="14.00">(v1/Service)</text>
</g>
<!-- moderation&#45;srv&#45;&gt;moderation&#45;depl -->
<g id="edge2" class="edge">
<title>moderation&#45;srv&#45;&gt;moderation&#45;depl</title>
<path fill="none" stroke="black" d="M247.48,-215.7C247.48,-207.93 247.48,-199.57 247.48,-191.43"/>
<polygon fill="black" stroke="black" points="250.98,-191.66 247.48,-181.66 243.98,-191.66 250.98,-191.66"/>
</g>
<!-- query&#45;depl -->
<g id="node5" class="node">
<title>query&#45;depl</title>
<path fill="#b7e0ff" stroke="black" stroke-width="2" d="M452.95,-72C452.95,-72 324,-72 324,-72 318,-72 312,-66 312,-60 312,-60 312,-12 312,-12 312,-6 318,0 324,0 324,0 452.95,0 452.95,0 458.95,0 464.95,-6 464.95,-12 464.95,-12 464.95,-60 464.95,-60 464.95,-66 458.95,-72 452.95,-72"/>
<text text-anchor="middle" x="388.48" y="-40.2" font-family="Arial" font-size="14.00">query&#45;depl</text>
<text text-anchor="middle" x="388.48" y="-23.4" font-family="Arial" font-size="14.00">(apps/v1/Deployment)</text>
</g>
<!-- query&#45;srv -->
<g id="node6" class="node">
<title>query&#45;srv</title>
<ellipse fill="#e6e6e6" stroke="black" stroke-width="2" cx="397.48" cy="-144" rx="55.55" ry="36"/>
<text text-anchor="middle" x="397.48" y="-148.2" font-family="Arial" font-size="14.00">query&#45;srv</text>
<text text-anchor="middle" x="397.48" y="-131.4" font-family="Arial" font-size="14.00">(v1/Service)</text>
</g>
<!-- query&#45;srv&#45;&gt;query&#45;depl -->
<g id="edge3" class="edge">
<title>query&#45;srv&#45;&gt;query&#45;depl</title>
<path fill="none" stroke="black" d="M394.48,-107.7C393.82,-99.93 393.11,-91.57 392.42,-83.43"/>
<polygon fill="black" stroke="black" points="395.92,-83.32 391.59,-73.65 388.95,-83.91 395.92,-83.32"/>
</g>
<!-- ingress&#45;srv -->
<g id="node7" class="node">
<title>ingress&#45;srv</title>
<ellipse fill="#e6e6e6" stroke="black" stroke-width="2" cx="635.48" cy="-252" rx="123.72" ry="36"/>
<text text-anchor="middle" x="635.48" y="-256.2" font-family="Arial" font-size="14.00">ingress&#45;srv</text>
<text text-anchor="middle" x="635.48" y="-239.4" font-family="Arial" font-size="14.00">(networking.k8s.io/v1/Ingress)</text>
</g>
<!-- ingress&#45;srv&#45;&gt;query&#45;srv -->
<g id="edge4" class="edge">
<title>ingress&#45;srv&#45;&gt;query&#45;srv</title>
<path fill="none" stroke="black" d="M566.63,-221.8C537.22,-209.17 502.57,-194.08 471.48,-180 465.1,-177.11 458.45,-174.05 451.85,-170.97"/>
<polygon fill="black" stroke="black" points="453.49,-167.87 442.95,-166.8 450.52,-174.21 453.49,-167.87"/>
</g>
<!-- posts&#45;clusterip&#45;srv -->
<g id="node10" class="node">
<title>posts&#45;clusterip&#45;srv</title>
<ellipse fill="#e6e6e6" stroke="black" stroke-width="2" cx="559.48" cy="-144" rx="79.38" ry="36"/>
<text text-anchor="middle" x="559.48" y="-148.2" font-family="Arial" font-size="14.00">posts&#45;clusterip&#45;srv</text>
<text text-anchor="middle" x="559.48" y="-131.4" font-family="Arial" font-size="14.00">(v1/Service)</text>
</g>
<!-- ingress&#45;srv&#45;&gt;posts&#45;clusterip&#45;srv -->
<g id="edge5" class="edge">
<title>ingress&#45;srv&#45;&gt;posts&#45;clusterip&#45;srv</title>
<path fill="none" stroke="black" d="M610.59,-216.29C604.1,-207.23 597.02,-197.37 590.26,-187.94"/>
<polygon fill="black" stroke="black" points="593.19,-186.02 584.52,-179.93 587.5,-190.1 593.19,-186.02"/>
</g>
<!-- client&#45;srv -->
<g id="node12" class="node">
<title>client&#45;srv</title>
<ellipse fill="#e6e6e6" stroke="black" stroke-width="2" cx="712.48" cy="-144" rx="55.55" ry="36"/>
<text text-anchor="middle" x="712.48" y="-148.2" font-family="Arial" font-size="14.00">client&#45;srv</text>
<text text-anchor="middle" x="712.48" y="-131.4" font-family="Arial" font-size="14.00">(v1/Service)</text>
</g>
<!-- ingress&#45;srv&#45;&gt;client&#45;srv -->
<g id="edge6" class="edge">
<title>ingress&#45;srv&#45;&gt;client&#45;srv</title>
<path fill="none" stroke="black" d="M660.69,-216.29C667.67,-206.68 675.31,-196.16 682.53,-186.22"/>
<polygon fill="black" stroke="black" points="685.36,-188.29 688.4,-178.14 679.69,-184.17 685.36,-188.29"/>
</g>
<!-- comments&#45;srv -->
<g id="node13" class="node">
<title>comments&#45;srv</title>
<ellipse fill="#e6e6e6" stroke="black" stroke-width="2" cx="849.48" cy="-144" rx="63.65" ry="36"/>
<text text-anchor="middle" x="849.48" y="-148.2" font-family="Arial" font-size="14.00">comments&#45;srv</text>
<text text-anchor="middle" x="849.48" y="-131.4" font-family="Arial" font-size="14.00">(v1/Service)</text>
</g>
<!-- ingress&#45;srv&#45;&gt;comments&#45;srv -->
<g id="edge7" class="edge">
<title>ingress&#45;srv&#45;&gt;comments&#45;srv</title>
<path fill="none" stroke="black" d="M697.09,-220.48C727.02,-205.66 762.77,-187.95 792.12,-173.41"/>
<polygon fill="black" stroke="black" points="793.45,-176.66 800.86,-169.08 790.34,-170.39 793.45,-176.66"/>
</g>
<!-- posts&#45;srv -->
<g id="node8" class="node">
<title>posts&#45;srv</title>
<ellipse fill="#e6e6e6" stroke="black" stroke-width="2" cx="832.48" cy="-252" rx="55.55" ry="36"/>
<text text-anchor="middle" x="832.48" y="-256.2" font-family="Arial" font-size="14.00">posts&#45;srv</text>
<text text-anchor="middle" x="832.48" y="-239.4" font-family="Arial" font-size="14.00">(v1/Service)</text>
</g>
<!-- posts&#45;depl -->
<g id="node9" class="node">
<title>posts&#45;depl</title>
<path fill="#b7e0ff" stroke="black" stroke-width="2" d="M623.95,-72C623.95,-72 495,-72 495,-72 489,-72 483,-66 483,-60 483,-60 483,-12 483,-12 483,-6 489,0 495,0 495,0 623.95,0 623.95,0 629.95,0 635.95,-6 635.95,-12 635.95,-12 635.95,-60 635.95,-60 635.95,-66 629.95,-72 623.95,-72"/>
<text text-anchor="middle" x="559.48" y="-40.2" font-family="Arial" font-size="14.00">posts&#45;depl</text>
<text text-anchor="middle" x="559.48" y="-23.4" font-family="Arial" font-size="14.00">(apps/v1/Deployment)</text>
</g>
<!-- posts&#45;clusterip&#45;srv&#45;&gt;posts&#45;depl -->
<g id="edge8" class="edge">
<title>posts&#45;clusterip&#45;srv&#45;&gt;posts&#45;depl</title>
<path fill="none" stroke="black" d="M559.48,-107.7C559.48,-99.93 559.48,-91.57 559.48,-83.43"/>
<polygon fill="black" stroke="black" points="562.98,-83.66 559.48,-73.66 555.98,-83.66 562.98,-83.66"/>
</g>
<!-- client&#45;depl -->
<g id="node11" class="node">
<title>client&#45;depl</title>
<path fill="#b7e0ff" stroke="black" stroke-width="2" d="M794.95,-72C794.95,-72 666,-72 666,-72 660,-72 654,-66 654,-60 654,-60 654,-12 654,-12 654,-6 660,0 666,0 666,0 794.95,0 794.95,0 800.95,0 806.95,-6 806.95,-12 806.95,-12 806.95,-60 806.95,-60 806.95,-66 800.95,-72 794.95,-72"/>
<text text-anchor="middle" x="730.48" y="-40.2" font-family="Arial" font-size="14.00">client&#45;depl</text>
<text text-anchor="middle" x="730.48" y="-23.4" font-family="Arial" font-size="14.00">(apps/v1/Deployment)</text>
</g>
<!-- client&#45;srv&#45;&gt;client&#45;depl -->
<g id="edge9" class="edge">
<title>client&#45;srv&#45;&gt;client&#45;depl</title>
<path fill="none" stroke="black" d="M718.42,-108C719.74,-100.21 721.16,-91.83 722.55,-83.66"/>
<polygon fill="black" stroke="black" points="726,-84.26 724.22,-73.82 719.1,-83.09 726,-84.26"/>
</g>
</g>
</svg>
